<?xml version="1.0" encoding="utf-8"?>
<svg version="1.1" xmlns:xlink="http://www.w3.org/1999/xlink" width="20px" height="20px" xmlns="http://www.w3.org/2000/svg">
  <g>
    <path d="M 16.484375 10.598958333333336  C 16.640625 10.442708333333336  16.71875 10.247395833333336  16.71875 10.013020833333336  C 16.71875 9.778645833333332  16.640625 9.583333333333332  16.484375 9.427083333333332  L 15.299479166666668 8.2421875  C 15.143229166666668 8.0859375  14.947916666666668 8.0078125  14.713541666666668 8.0078125  C 14.479166666666668 8.0078125  14.283854166666668 8.0859375  14.127604166666668 8.2421875  L 11.666666666666668 10.703125  L 11.666666666666668 4.166666666666668  C 11.666666666666668 3.940972222222221  11.584201388888891 3.745659722222221  11.419270833333332 3.5807291666666674  C 11.254340277777779 3.4157986111111094  11.059027777777779 3.3333333333333326  10.833333333333332 3.3333333333333326  L 9.166666666666666 3.3333333333333326  C 8.940972222222223 3.3333333333333326  8.745659722222223 3.4157986111111094  8.580729166666666 3.5807291666666674  C 8.41579861111111 3.745659722222221  8.333333333333334 3.940972222222221  8.333333333333334 4.166666666666668  L 8.333333333333334 10.703125  L 5.872395833333334 8.2421875  C 5.707465277777778 8.077256944444445  5.512152777777778 7.994791666666668  5.286458333333334 7.994791666666668  C 5.060763888888889 7.994791666666668  4.865451388888889 8.077256944444445  4.700520833333333 8.2421875  L 3.515625 9.427083333333332  C 3.359375 9.583333333333332  3.2812500000000004 9.778645833333332  3.28125 10.013020833333336  C 3.2812500000000004 10.247395833333336  3.359375 10.442708333333336  3.515625 10.598958333333336  L 8.229166666666666 15.3125  L 9.4140625 16.497395833333332  C 9.5703125 16.653645833333332  9.765625 16.731770833333332  10 16.731770833333332  C 10.234375000000002 16.731770833333332  10.429687500000002 16.653645833333332  10.5859375 16.497395833333332  L 11.770833333333332 15.3125  L 16.484375 10.598958333333336  Z M 18.658854166666668 4.98046875  C 19.552951388888886 6.512586805555554  20 8.185763888888886  20 10  C 20 11.81423611111111  19.552951388888886 13.487413194444443  18.658854166666668 15.01953125  C 17.764756944444446 16.551649305555557  16.551649305555557 17.764756944444443  15.01953125 18.658854166666668  C 13.487413194444446 19.55295138888889  11.81423611111111 20  10 20  C 8.18576388888889 20  6.512586805555555 19.55295138888889  4.98046875 18.658854166666668  C 3.4483506944444446 17.764756944444443  2.235243055555556 16.551649305555557  1.3411458333333335 15.01953125  C 0.44704861111111105 13.487413194444443  0 11.81423611111111  0 10  C 0 8.185763888888886  0.44704861111111105 6.512586805555554  1.3411458333333335 4.98046875  C 2.235243055555556 3.448350694444444  3.4483506944444446 2.2352430555555536  4.98046875 1.3411458333333326  C 6.512586805555555 0.4470486111111094  8.18576388888889 0  10 0  C 11.81423611111111 0  13.487413194444446 0.4470486111111094  15.01953125 1.3411458333333326  C 16.551649305555557 2.2352430555555536  17.764756944444446 3.448350694444444  18.658854166666668 4.98046875  Z " fill-rule="nonzero" fill="#000000" stroke="none" />
  </g>
</svg>