<?xml version="1.0" encoding="utf-8"?>
<svg version="1.1" xmlns:xlink="http://www.w3.org/1999/xlink" width="24px" height="10px" xmlns="http://www.w3.org/2000/svg">
  <g transform="matrix(1 0 0 1 -79 -26 )">
    <path d="M 23.86111111111111 4.668400520156046  C 23.953703703703706 4.755093194625054  24.000000000000007 4.854789770264412  24 4.967490247074123  C 24.000000000000007 5.088859991330732  23.953703703703706 5.19289120069354  23.86111111111111 5.279583875162549  L 18.52777777777778 9.88296488946684  C 18.37962962962963 10.004334633723449  18.21759259259259 10.030342436064153  18.041666666666668 9.960988296488946  C 17.865740740740744 9.88296488946684  17.77777777777778 9.757260511486779  17.77777777777778 9.583875162548765  L 17.77777777777778 6.671001300390117  L 0.4444444444444444 6.671001300390117  C 0.3148148148148148 6.671001300390117  0.20833333333333334 6.631989596879064  0.125 6.553966189856957  C 0.041666666666666664 6.47594278283485  0 6.376246207195491  0 6.254876462938881  L 0 3.758127438231469  C 0 3.636757693974859  0.041666666666666664 3.5370611183355005  0.125 3.4590377113133943  C 0.20833333333333334 3.3810143042912877  0.3148148148148148 3.342002600780234  0.4444444444444444 3.342002600780234  L 17.77777777777778 3.342002600780234  L 17.77777777777778 0.42912873862158696  C 17.77777777777778 0.24707412223667125  17.865740740740744 0.12136974425660974  18.041666666666668 0.05201560468140465  C 18.21759259259259 -0.01733853489380266  18.37962962962963 0.004334633723449555  18.52777777777778 0.11703511053316018  L 23.86111111111111 4.668400520156046  Z " fill-rule="nonzero" fill="#000000" stroke="none" transform="matrix(1 0 0 1 79 26 )" />
  </g>
</svg>