<?xml version="1.0" encoding="utf-8"?>
<svg version="1.1" xmlns:xlink="http://www.w3.org/1999/xlink" width="8px" height="8px" xmlns="http://www.w3.org/2000/svg">
  <g transform="matrix(1 0 0 1 -3 -3 )">
    <path d="M 7 3  C 9.24 3  11 4.76  11 7  C 11 9.24  9.24 11  7 11  C 4.76 11  3 9.24  3 7  C 3 4.76  4.76 3  7 3  Z " fill-rule="nonzero" fill="#797979" stroke="none" />
    <path d="M 7 3.5  C 8.96 3.5  10.5 5.04  10.5 7  C 10.5 8.96  8.96 10.5  7 10.5  C 5.04 10.5  3.5 8.96  3.5 7  C 3.5 5.04  5.04 3.5  7 3.5  Z " stroke-width="1" stroke="#797979" fill="none" />
  </g>
</svg>