<?xml version="1.0" encoding="utf-8"?>
<svg version="1.1" xmlns:xlink="http://www.w3.org/1999/xlink" width="29px" height="29px" xmlns="http://www.w3.org/2000/svg">
  <g transform="matrix(1 0 0 1 -1735 -15 )">
    <path d="M 23.90234375 15.368489583333336  C 24.12890625 15.141927083333336  24.2421875 14.858723958333336  24.2421875 14.518880208333336  C 24.2421875 14.179036458333332  24.12890625 13.895833333333332  23.90234375 13.669270833333332  L 22.184244791666668 11.951171875  C 21.957682291666668 11.724609375  21.674479166666668 11.611328125  21.334635416666668 11.611328125  C 20.994791666666668 11.611328125  20.711588541666668 11.724609375  20.485026041666668 11.951171875  L 16.916666666666668 15.51953125  L 16.916666666666668 6.041666666666668  C 16.916666666666668 5.7144097222222205  16.797092013888893 5.4312065972222205  16.557942708333332 5.192057291666668  C 16.31879340277778 4.952907986111109  16.03559027777778 4.833333333333332  15.708333333333332 4.833333333333332  L 13.291666666666666 4.833333333333332  C 12.964409722222223 4.833333333333332  12.681206597222223 4.952907986111109  12.442057291666666 5.192057291666668  C 12.202907986111112 5.4312065972222205  12.083333333333334 5.7144097222222205  12.083333333333334 6.041666666666668  L 12.083333333333334 15.51953125  L 8.514973958333334 11.951171875  C 8.275824652777779 11.712022569444445  7.992621527777778 11.592447916666668  7.665364583333334 11.592447916666668  C 7.33810763888889 11.592447916666668  7.054904513888889 11.712022569444445  6.815755208333333 11.951171875  L 5.09765625 13.669270833333332  C 4.87109375 13.895833333333332  4.757812500000001 14.179036458333332  4.7578125 14.518880208333336  C 4.757812500000001 14.858723958333336  4.87109375 15.141927083333336  5.09765625 15.368489583333336  L 11.932291666666666 22.203125  L 13.650390625 23.921223958333332  C 13.876953125 24.147786458333332  14.16015625 24.261067708333332  14.5 24.261067708333332  C 14.839843750000004 24.261067708333332  15.123046875000004 24.147786458333332  15.349609375 23.921223958333332  L 17.067708333333332 22.203125  L 23.90234375 15.368489583333336  Z M 27.055338541666668 7.2216796875  C 28.351779513888886 9.443250868055554  29 11.869357638888886  29 14.5  C 29 17.13064236111111  28.351779513888886 19.55674913194444  27.055338541666668 21.7783203125  C 25.758897569444446 23.999891493055557  23.999891493055557 25.758897569444443  21.7783203125 27.055338541666668  C 19.556749131944446 28.351779513888893  17.13064236111111 29  14.5 29  C 11.86935763888889 29  9.443250868055555 28.351779513888893  7.2216796875 27.055338541666668  C 5.000108506944445 25.758897569444443  3.241102430555556 23.999891493055557  1.9446614583333335 21.7783203125  C 0.648220486111111 19.55674913194444  0 17.13064236111111  0 14.5  C 0 11.869357638888886  0.648220486111111 9.443250868055554  1.9446614583333335 7.2216796875  C 3.241102430555556 5.000108506944444  5.000108506944445 3.2411024305555527  7.2216796875 1.9446614583333321  C 9.443250868055555 0.6482204861111086  11.86935763888889 0  14.5 0  C 17.13064236111111 0  19.556749131944446 0.6482204861111086  21.7783203125 1.9446614583333321  C 23.999891493055557 3.2411024305555527  25.758897569444446 5.000108506944444  27.055338541666668 7.2216796875  Z " fill-rule="nonzero" fill="#000000" stroke="none" transform="matrix(1 0 0 1 1735 15 )" />
  </g>
</svg>